# xmcd
#
# Track frame offsets: 
#        150
#        19778
#        32782
#        45163
#        59541
#        73396
#        90715
#        105211
#        123293
#        141178
#        155582
#        173959
#        191618
#        212737
#        228289
#
# Disc length: 3327 seconds
#
# Revision: 0
# Processed by: cddbd v1.5.2PL0 Copyright (c) Steve Scherf et al.
# Submitted via: ExactAudioCopy v1.0b1
#
DISCID=cb0cfd0f
DTITLE=Année 80 compil - Année 80 compil CD 8
DYEAR=2010
DGENRE=Country
TTITLE0=Début de soirée - Jardins d'enfants
TTITLE1=Françoise Hardy - Je ne suis là pour personne
TTITLE2=Images - Quand la musique tourne
TTITLE3=Soft Cell - Tainted love
TTITLE4=Chagrin d'amour - Bonjour
TTITLE5=Annabelle - Fuis Lawrence d'Arabie
TTITLE6=Tony esposito - Kalimba de luna
TTITLE7=T'Pau - China in your hand
TTITLE8=Louise Tucker - Midnight blue
TTITLE9=Félix Gray - La Gitane
TTITLE10=Pacifique - Quand tu serres mon corps
TTITLE11=Murray Head - One night in Bangkok
TTITLE12=Phil Barney - Voleurs de rêves
TTITLE13=Dana Dawson - Ready to follow you
TTITLE14=Ken Laszlo - Hey Hey Guy
EXTD=
EXTT0=
EXTT1=
EXTT2=
EXTT3=
EXTT4=
EXTT5=
EXTT6=
EXTT7=
EXTT8=
EXTT9=
EXTT10=
EXTT11=
EXTT12=
EXTT13=
EXTT14=
PLAYORDER=
